Patient4_TMGait_0pt5_01_left_10_GRF.mot
version=1
nRows=52
nColumns=19
inDegrees=no
endheader
time	F1x	F1y	F1z	M1x	M1y	M1z	F2x	F2y	F2z	M2x	M2y	M2z	EC1x	EC1y	EC1z	EC2x	EC2y	EC2z
13.39	-38.3311	43.2013	-7.7445	-8.6329	-7.2859	26.7117	-37.5065	800.8401	-57.3997	319.6262	61.1374	656.8653	-0.0592	0.0182	-0.0073	-0.0462	0.0165	0.9585
13.4039	-26.5415	30.4041	-5.3339	-6.1581	-5.0631	18.8574	-38.2769	800.9246	-59.5432	320.5975	63.523	653.7523	-0.0592	0.0182	-0.0073	-0.0462	0.0165	0.9585
13.4179	-16.4555	19.4343	-3.2805	-4.0398	-3.1571	12.1473	-38.1775	799.928	-61.0354	321.0173	64.9136	649.1266	-0.0592	0.0182	-0.0073	-0.0462	0.0165	0.9585
13.4318	-8.7078	10.9999	-1.7011	-2.4165	-1.6981	7.0265	-37.0707	797.3553	-61.6586	320.6455	65.0548	642.7433	-0.0592	0.0182	-0.0073	-0.0462	0.0165	0.9585
13.4457	-3.3121	5.1252	-0.59847	-1.2942	-0.68917	3.5008	-35.0145	792.964	-61.3958	319.377	63.9574	634.5973	-0.0592	0.0182	-0.0073	-0.0462	0.0165	0.9585
13.4596	0.045621	1.4732	0.094423	-0.60708	-0.075072	1.3537	-32.2492	786.727	-60.3882	317.2112	61.8483	624.8789	-0.0592	0.0182	-0.0073	-0.0462	0.0165	0.9585
13.4736	1.8301	-0.46656	0.47361	-0.25027	0.23064	0.24852	-29.1184	778.8542	-58.8323	314.2511	59.049	613.9453	-0.0592	0.0182	-0.0073	-0.0462	0.0165	0.9585
13.4875	2.489	-1.2171	0.62465	-0.1175	0.32372	-0.13848	-25.9717	769.8449	-56.9163	310.7222	55.8817	602.3249	-0.0592	0.0182	-0.0073	-0.0462	0.0165	0.9585
13.5014	2.4249	-1.2506	0.64283	-0.11204	0.27071	-0.11889	-23.1053	760.4046	-54.8237	306.9349	52.6448	590.6429	-0.0592	0.0182	-0.0073	-0.0462	0.0165	0.9585
13.5154	1.9548	-0.95749	0.58515	-0.15198	0.13916	0.048358	-20.7087	751.305	-52.7368	303.2235	49.5869	579.5084	-0.0592	0.0182	-0.0073	-0.0462	0.0165	0.9585
13.5293	1.2881	-0.6367	0.50092	-0.17128	-0.03897	0.17725	-18.8319	743.2823	-50.8168	299.9061	46.875	569.436	-0.0592	0.0182	-0.0073	-0.0462	0.0165	0.9585
13.5432	0.58411	-0.50885	0.40957	-0.11745	-0.22534	0.11015	-17.3824	736.9783	-49.1943	297.26	44.5862	560.8273	-0.0592	0.0182	-0.0073	-0.0462	0.0165	0.9585
13.5571	-0.067116	-0.7099	0.32866	0.046989	-0.40401	-0.24321	-16.169	732.8541	-47.9634	295.4879	42.7224	553.912	-0.0592	0.0182	-0.0073	-0.0462	0.0165	0.9585
13.5711	-0.59059	-1.3269	0.25668	0.34765	-0.54411	-0.95178	-14.968	731.1092	-47.1926	294.684	41.2421	548.7054	-0.0592	0.0182	-0.0073	-0.0462	0.0165	0.9585
13.585	-0.90434	-2.3743	0.19074	0.78958	-0.60956	-2.0299	-13.5742	731.6603	-46.9017	294.825	40.0675	545.0373	-0.0592	0.0182	-0.0073	-0.0462	0.0165	0.9585
13.5989	-0.92214	-3.762	0.12177	1.3422	-0.55572	-3.3934	-11.8269	734.1311	-47.058	295.7667	39.1009	542.558	-0.0592	0.0182	-0.0073	-0.0462	0.0165	0.9585
13.6129	-0.50168	-5.2803	0.041808	1.9274	-0.32278	-4.8666	-9.6351	737.8538	-47.5654	297.243	38.2218	540.7472	-0.0592	0.0182	-0.0073	-0.0462	0.0165	0.9585
13.6268	0.51336	-6.5299	-0.058871	2.3976	0.15597	-6.0919	-6.9668	741.9157	-48.3127	298.8829	37.3261	538.9557	-0.0592	0.0182	-0.0073	-0.0462	0.0165	0.9585
13.6407	2.2948	-6.8724	-0.1959	2.518	0.9589	-6.5034	-3.8306	745.3067	-49.1918	300.2677	36.3301	536.5144	-0.0592	0.0182	-0.0073	-0.0462	0.0165	0.9585
13.6546	4.9963	-5.3857	-0.3715	1.9511	2.1432	-5.2939	-0.27914	747.1561	-50.1232	301.0238	35.1875	532.9039	-0.0592	0.0182	-0.0073	-0.0462	0.0165	0.9585
13.6686	8.6561	-0.85756	-0.5893	0.25294	3.7275	-1.383	3.6013	746.8787	-51.0343	300.8855	33.8696	527.8357	-0.0592	0.0182	-0.0073	-0.0462	0.0165	0.9585
13.6825	13.1336	8.1368	-0.82445	-3.101	5.6356	6.4933	7.6742	744.1789	-51.8637	299.7008	32.3819	521.2449	-0.0592	0.0182	-0.0073	-0.0462	0.0165	0.9585
13.6964	17.9436	23.0805	-1.0393	-8.6533	7.6549	19.6655	11.7635	738.888	-52.5347	297.3742	30.741	513.1568	-0.0592	0.0182	-0.0073	-0.0462	0.0165	0.9585
13.7104	22.1103	45.171	-1.1573	-16.8372	9.352	39.2274	15.6688	730.7339	-52.9622	293.7816	28.9767	503.5185	-0.0592	0.0182	-0.0073	-0.0462	0.0165	0.9585
13.7243	24.09	74.8932	-1.0908	-27.8222	10.0738	65.6688	19.1964	719.2096	-53.0432	288.7224	27.1089	492.0904	-0.0592	0.0182	-0.0073	-0.0462	0.0165	0.9585
13.7382	22.3972	112.0265	-0.72077	-41.5157	9.1631	98.9019	22.2181	703.6319	-52.682	281.9483	25.1496	478.4513	-0.0592	0.0182	-0.0073	-0.0462	0.0165	0.9585
13.7521	16.9261	156.1776	0.044567	-57.759	6.4903	138.6508	24.6622	683.3816	-51.7924	273.2512	23.096	462.1746	-0.0592	0.0182	-0.0073	-0.0462	0.0165	0.9585
13.7661	8.7481	206.3086	1.3652	-76.1431	2.2999	183.934	26.4936	658.004	-50.3363	262.4977	20.9624	442.9279	-0.0592	0.0182	-0.0073	-0.0462	0.0165	0.9585
13.78	-0.87473	259.2443	3.6238	-95.4666	-3.2888	231.7383	27.6968	627.1562	-48.3007	249.6061	18.7716	420.4427	-0.0592	0.0182	-0.0073	-0.0462	0.0165	0.9585
13.7939	-10.4946	310.1609	7.1681	-113.949	-10.0478	277.5161	28.254	590.6874	-45.7062	234.57	16.5741	394.5854	-0.0592	0.0182	-0.0073	-0.0462	0.0165	0.9585
13.8079	-18.8701	355.588	11.6757	-130.3349	-17.1955	317.9482	28.1701	548.8292	-42.6139	217.5186	14.4321	365.4804	-0.0592	0.0182	-0.0073	-0.0462	0.0165	0.9585
13.8218	-25.3969	394.8045	16.7183	-144.3813	-24.1001	352.2323	27.487	502.2577	-39.151	198.7371	12.4212	333.5496	-0.0592	0.0182	-0.0073	-0.0462	0.0165	0.9585
13.8357	-29.9392	429.2368	21.8194	-156.6232	-30.2736	381.5672	26.2655	451.9907	-35.4559	178.6255	10.5963	299.4493	-0.0592	0.0182	-0.0073	-0.0462	0.0165	0.9585
13.8496	-32.7002	461.1373	26.6992	-167.874	-35.5369	407.9921	24.5632	399.2074	-31.6441	157.6329	8.9898	263.934	-0.0592	0.0182	-0.0073	-0.0462	0.0165	0.9585
13.8636	-33.999	492.4969	31.2094	-178.8331	-39.8766	433.3332	22.3944	345.1557	-27.7878	136.2263	7.6125	227.8068	-0.0592	0.0182	-0.0073	-0.0462	0.0165	0.9585
13.8775	-34.2335	524.5396	35.4552	-189.9031	-43.5378	458.7742	19.7607	291.1562	-23.9579	114.8973	6.478	191.9095	-0.0592	0.0182	-0.0073	-0.0462	0.0165	0.9585
13.8914	-33.8046	557.6691	39.7121	-201.1876	-46.9143	484.7801	16.7057	238.6472	-20.2492	94.186	5.602	157.1567	-0.0592	0.0182	-0.0073	-0.0462	0.0165	0.9585
13.9054	-33.0182	591.7035	44.2277	-212.6062	-50.3362	511.2633	13.3339	189.2064	-16.7851	74.6912	4.9946	124.5562	-0.0592	0.0182	-0.0073	-0.0462	0.0165	0.9585
13.9193	-32.0999	626.0547	49.0863	-223.973	-53.9567	537.7657	9.8667	144.3765	-13.6721	57.0084	4.6138	95.0748	-0.0592	0.0182	-0.0073	-0.0462	0.0165	0.9585
13.9332	-31.1311	659.7924	54.0766	-235.028	-57.6259	563.4702	6.5859	105.38	-10.958	41.617	4.3621	69.4749	-0.0592	0.0182	-0.0073	-0.0462	0.0165	0.9585
13.9471	-30.1108	691.8048	58.8015	-245.4697	-61.0156	587.4149	3.731	72.8907	-8.6248	28.7872	4.1298	48.1662	-0.0592	0.0182	-0.0073	-0.0462	0.0165	0.9585
13.9611	-28.9577	720.8867	62.7567	-254.9699	-63.6782	608.5624	1.4637	47.0137	-6.6038	18.5684	3.8147	31.1929	-0.0592	0.0182	-0.0073	-0.0462	0.0165	0.9585
13.975	-27.5275	745.7741	65.6086	-263.1582	-65.2965	625.8551	-0.16569	27.4328	-4.8306	10.8397	3.3605	18.3526	-0.0592	0.0182	-0.0073	-0.0462	0.0165	0.9585
13.9889	-25.7029	765.2763	67.2133	-269.6568	-65.7115	638.3498	-1.1601	13.5379	-3.272	5.361	2.7545	9.2454	-0.0592	0.0182	-0.0073	-0.0462	0.0165	0.9585
14.0029	-23.3981	778.5127	67.6645	-274.1598	-64.9807	645.3847	-1.6143	4.52	-1.9707	1.808	2.076	3.3396	-0.0592	0.0182	-0.0073	-0.0462	0.0165	0.9585
14.0168	-20.6275	785.2027	67.1065	-276.546	-63.2307	646.8269	-1.7117	-0.60734	-0.99294	-0.2139	1.4559	-0.0010063	-0.0592	0.0182	-0.0073	-0.0462	0.0165	0.9585
14.0307	-17.4893	785.8479	65.7343	-276.9534	-60.6601	643.209	-1.5899	-2.9282	-0.32316	-1.1316	0.94841	-1.4929	-0.0592	0.0182	-0.0073	-0.0462	0.0165	0.9585
14.0446	-14.1203	781.719	63.7444	-275.7824	-57.4742	635.677	-1.3665	-3.4131	0.084953	-1.3282	0.57347	-1.7715	-0.0592	0.0182	-0.0073	-0.0462	0.0165	0.9585
14.0586	-10.7205	774.5651	61.4149	-273.5914	-53.9632	625.7682	-1.1134	-2.8455	0.30263	-1.111	0.31187	-1.3581	-0.0592	0.0182	-0.0073	-0.0462	0.0165	0.9585
14.0725	-7.4968	766.265	59.0409	-270.9794	-50.4342	615.0887	-0.87485	-1.7973	0.38369	-0.70288	0.14896	-0.63759	-0.0592	0.0182	-0.0073	-0.0462	0.0165	0.9585
14.0864	-4.6781	758.5258	56.8973	-268.4895	-47.1848	605.08	-0.68855	-0.63232	0.38928	-0.24512	0.057533	0.15613	-0.0592	0.0182	-0.0073	-0.0462	0.0165	0.9585
14.1004	-2.4748	752.6313	55.1679	-266.5323	-44.4381	596.8159	-0.54773	0.43181	0.34201	0.17843	0.028334	0.87219	-0.0592	0.0182	-0.0073	-0.0462	0.0165	0.9585
